<?xml version="1.0" standalone="no"?><!DOCTYPE svg PUBLIC "-//W3C//DTD SVG 1.1//EN" "http://www.w3.org/Graphics/SVG/1.1/DTD/svg11.dtd"><svg t="1600172121275" class="icon" viewBox="0 0 1024 1024" version="1.1" xmlns="http://www.w3.org/2000/svg" p-id="59716" xmlns:xlink="http://www.w3.org/1999/xlink" width="300" height="300"><defs><style type="text/css"></style></defs><path d="M106 424.2c-23.4 0-42.2-15.2-42.2-34s18.9-34 42.4-34h811.6c23.4 0 42.4 15.2 42.4 34s-18.9 34-42.4 34H106z m0 487.1c-23.4 0-42.2-15.2-42.2-34s18.9-34 42.4-34h811.6c23.4 0 42.4 15.2 42.4 34s-18.9 34-42.4 34H106z m177.3-730.6c-23.4 0-42.2-15.2-42.2-34s18.9-34 42.3-34h457.1c23.4 0 42.4 15.2 42.4 34s-18.9 34-42.4 34H283.3z m0 487.1c-23.4 0-42.2-15.2-42.2-34s18.9-34 42.3-34h457.1c23.4 0 42.4 15.2 42.4 34s-18.9 34-42.4 34H283.3z" p-id="59717" fill="#2c2c2c"></path></svg>