<?xml version="1.0" standalone="no"?><!DOCTYPE svg PUBLIC "-//W3C//DTD SVG 1.1//EN" "http://www.w3.org/Graphics/SVG/1.1/DTD/svg11.dtd"><svg t="1600162793955" class="icon" viewBox="0 0 1024 1024" version="1.1" xmlns="http://www.w3.org/2000/svg" p-id="3633" xmlns:xlink="http://www.w3.org/1999/xlink" width="300" height="300"><defs><style type="text/css"></style></defs><path d="M352 160h512a32 32 0 0 0 0-64h-512a32 32 0 0 0 0 64zM352 672h512a32 32 0 0 0 0-64h-512a32 32 0 0 0 0 64zM160 928h704a32 32 0 0 0 0-64h-704a32 32 0 0 0 0 64zM160 416h704a32 32 0 0 0 0-64h-704a32 32 0 0 0 0 64z" p-id="3634" fill="#2c2c2c"></path></svg>