<?xml version="1.0" standalone="no"?><!DOCTYPE svg PUBLIC "-//W3C//DTD SVG 1.1//EN" "http://www.w3.org/Graphics/SVG/1.1/DTD/svg11.dtd"><svg t="1600243237694" class="icon" viewBox="0 0 1024 1024" version="1.1" xmlns="http://www.w3.org/2000/svg" p-id="5096" xmlns:xlink="http://www.w3.org/1999/xlink" width="300" height="300"><defs><style type="text/css"></style></defs><path d="M853.333333 56.888889a113.777778 113.777778 0 0 1 113.777778 113.777778v568.888889a113.777778 113.777778 0 0 1-113.777778 113.777777h-56.888889a113.777778 113.777778 0 0 1-113.777777 113.777778H170.666667a113.777778 113.777778 0 0 1-113.777778-113.777778V284.444444a113.777778 113.777778 0 0 1 113.777778-113.777777h56.888889a113.777778 113.777778 0 0 1 113.777777-113.777778h512z m-170.666666 170.666667H170.666667a56.888889 56.888889 0 0 0-56.490667 50.232888L113.777778 284.444444v568.888889a56.888889 56.888889 0 0 0 50.232889 56.490667L170.666667 910.222222h512a56.888889 56.888889 0 0 0 56.490666-50.232889L739.555556 853.333333V284.444444a56.888889 56.888889 0 0 0-50.232889-56.490666L682.666667 227.555556z m170.666666-113.777778H341.333333a56.888889 56.888889 0 0 0-56.490666 50.232889L284.444444 170.666667h398.222223a113.777778 113.777778 0 0 1 113.777777 113.777777v512h56.888889a56.888889 56.888889 0 0 0 56.490667-50.232888L910.222222 739.555556V170.666667a56.888889 56.888889 0 0 0-50.232889-56.490667L853.333333 113.777778z m-256 625.777778a28.444444 28.444444 0 1 1 0 56.888888h-341.333333a28.444444 28.444444 0 1 1 0-56.888888h341.333333z m0-170.666667a28.444444 28.444444 0 1 1 0 56.888889h-341.333333a28.444444 28.444444 0 1 1 0-56.888889h341.333333z m0-170.666667a28.444444 28.444444 0 1 1 0 56.888889h-341.333333a28.444444 28.444444 0 0 1 0-56.888889h341.333333z" p-id="5097" fill="#2c2c2c"></path></svg>