<?xml version="1.0" standalone="no"?><!DOCTYPE svg PUBLIC "-//W3C//DTD SVG 1.1//EN" "http://www.w3.org/Graphics/SVG/1.1/DTD/svg11.dtd"><svg t="1600159817434" class="icon" viewBox="0 0 1024 1024" version="1.1" xmlns="http://www.w3.org/2000/svg" p-id="5805" xmlns:xlink="http://www.w3.org/1999/xlink" width="300" height="300"><defs><style type="text/css"></style></defs><path d="M153.6 70.2h405.5c87.1 0 155 20.7 204 62.2 47.3 39.8 70.9 93.7 70.9 161.7 0 49.7-12.4 92-37.3 126.9-25.7 33.2-60.1 57.6-103.2 73.4 58.9 11.6 103.2 35.3 133.1 70.9 29.9 35.7 44.8 83.8 44.8 144.3 0 88.7-30.7 154.2-92 196.5-52.2 34.8-125.6 52.2-220.1 52.2H153.6V70.2z m135.6 112v264.9H523c61.3 0 106.1-10.8 134.3-32.3 27.4-22.4 41-57.2 41-104.5 0-44.8-13.7-77.1-41-97-26.5-20.7-70.5-31.1-131.8-31.1H289.2z m0 375.6v288.5h251.2c55.5 0 100.3-9.1 134.3-27.4 40.6-24 60.9-61.3 60.9-111.9 0-52.2-15.8-90.4-47.3-114.4-30.7-23.2-78.8-34.8-144.3-34.8H289.2z" p-id="5806" fill="#2c2c2c"></path></svg>