<?xml version="1.0" standalone="no"?><!DOCTYPE svg PUBLIC "-//W3C//DTD SVG 1.1//EN" "http://www.w3.org/Graphics/SVG/1.1/DTD/svg11.dtd"><svg t="1597028965866" class="icon" viewBox="0 0 1024 1024" version="1.1" xmlns="http://www.w3.org/2000/svg" p-id="5424" xmlns:xlink="http://www.w3.org/1999/xlink" width="300" height="300"><defs><style type="text/css"></style></defs><path d="M841.67168 399.587556c-52.906667-195.128889-241.208889-321.080889-440.888889-294.855112a126.520889 126.520889 0 0 1-70.712889 136.362667 125.44 125.44 0 0 1-149.504-33.109333 404.138667 404.138667 0 0 0-130.275555 297.699555c0 111.274667 44.828444 212.081778 117.191111 285.240889a125.383111 125.383111 0 0 1 143.416889-17.578666c46.705778 25.031111 72.817778 76.8 65.308444 129.422222 197.233778 38.456889 392.476444-74.865778 457.728-265.671111a126.407111 126.407111 0 0 1-79.075555-121.457778 126.293333 126.293333 0 0 1 86.812444-116.053333z m50.517333-5.688889a126.179556 126.179556 0 0 1 114.346667 129.991111 126.122667 126.122667 0 0 1-122.538667 122.197333c-71.623111 221.525333-298.097778 352.995556-524.970666 304.753778a125.724444 125.724444 0 0 1-222.151111 11.548444 126.862222 126.862222 0 0 1 0.455111-130.389333A454.542222 454.542222 0 0 1 0.000569 505.685333 454.769778 454.769778 0 0 1 156.046791 162.133333 126.577778 126.577778 0 0 1 223.517013 11.889778a125.496889 125.496889 0 0 1 157.980445 44.544c231.537778-37.148444 453.063111 109.226667 510.748444 337.464889h-0.056889z m-439.182222 314.026666a201.159111 201.159111 0 0 1-174.364444-101.091555 202.922667 202.922667 0 0 1 0-202.24 201.159111 201.159111 0 0 1 174.364444-101.091556 201.784889 201.784889 0 0 1 201.329778 202.183111 201.784889 201.784889 0 0 1-201.386667 202.24z" p-id="5425"></path></svg>