<?xml version="1.0" standalone="no"?><!DOCTYPE svg PUBLIC "-//W3C//DTD SVG 1.1//EN" "http://www.w3.org/Graphics/SVG/1.1/DTD/svg11.dtd"><svg t="1578475706604" class="icon" viewBox="0 0 1182 1024" version="1.1" xmlns="http://www.w3.org/2000/svg" p-id="90596" xmlns:xlink="http://www.w3.org/1999/xlink" width="346.2890625" height="300"><defs><style type="text/css"></style></defs><path d="M1093.878519 1.042963H87.703704C39.253333 1.042963 0 40.391111 0 88.746667v846.222222c0 48.45037 39.253333 87.703704 87.703704 87.703704h1006.364444c48.45037 0 87.703704-39.253333 87.703704-87.703704V88.746667c-0.18963-48.355556-39.442963-87.703704-87.893333-87.703704zM876.847407 91.685926c30.245926 0 54.802963 24.557037 54.802963 54.802963s-24.557037 54.802963-54.802963 54.802963-54.802963-24.462222-54.802963-54.802963c0-30.340741 24.557037-54.802963 54.802963-54.802963zM98.607407 146.488889c0-29.108148 23.514074-52.622222 52.622223-52.622222H611.555556c29.108148 0 52.622222 23.514074 52.622222 52.622222s-23.514074 52.717037-52.622222 52.717037H151.134815c-28.918519 0-52.527407-23.703704-52.527408-52.717037z m898.844445 734.814815c0 24.746667-20.195556 44.942222-44.942222 44.942222H844.894815c0 0.094815-0.094815 0.18963-0.094815 0.379259H733.582222c4.171852-15.54963 13.748148-53.096296 13.558519-68.93037 0.18963-3.792593 0.474074-7.68 0.474074-11.472593 0-86.376296-70.352593-156.728889-156.728889-156.728889-16.308148 0-31.952593 2.56-46.838519 7.205926-60.207407 21.902222-103.348148 79.54963-103.348148 147.437037 0 9.955556 0.948148 19.816296 2.74963 29.202963h-0.094815s5.30963 27.685926 15.36 53.285926H336.687407c0-0.094815-0.094815-0.18963-0.094814-0.379259h-94.435556c-24.746667 0-44.942222-20.195556-44.942222-44.942222v-65.801482c0-24.746667 20.195556-44.942222 44.942222-44.942222h93.108148c5.30963-17.825185 12.420741-35.081481 21.333334-51.38963L289.848889 652.325926c-16.308148-16.308148-16.308148-42.856296 0-59.164445l50.820741-50.82074c16.308148-16.308148 42.856296-16.308148 59.164444 0l67.792593 67.792592c14.411852-7.49037 29.582222-13.748148 45.321481-18.678518V487.822222c0-23.04 18.678519-41.718519 41.718519-41.718518h72.059259c23.04 0 41.718519 18.678519 41.718518 41.718518v103.537778c17.256296 5.30963 33.848889 12.325926 49.493334 20.859259l75.093333-75.093333c15.644444-15.644444 40.96-15.644444 56.794074 0l53.380741 53.380741c15.644444 15.644444 15.644444 40.96 0 56.794074L827.06963 723.437037c7.774815 14.980741 14.222222 30.814815 19.152592 47.217778h106.287408c24.746667 0 44.942222 20.195556 44.942222 44.942222v65.706667z m32.900741-679.917037c-30.245926 0-54.802963-24.557037-54.802963-54.802963s24.557037-54.802963 54.802963-54.802963 54.802963 24.557037 54.802963 54.802963c-0.094815 30.245926-24.462222 54.802963-54.802963 54.802963z m0 0" p-id="90597" fill="#2BBD9E"></path></svg>