<?xml version="1.0" standalone="no"?><!DOCTYPE svg PUBLIC "-//W3C//DTD SVG 1.1//EN" "http://www.w3.org/Graphics/SVG/1.1/DTD/svg11.dtd"><svg t="1578466134386" class="icon" viewBox="0 0 1024 1024" version="1.1" xmlns="http://www.w3.org/2000/svg" p-id="33725" xmlns:xlink="http://www.w3.org/1999/xlink" width="300" height="300"><defs><style type="text/css"></style></defs><path d="M196.608 823.076571c0 39.204571 31.378286 70.948571 69.997714 70.948572a70.436571 70.436571 0 0 0 69.924572-70.948572 70.436571 70.436571 0 0 0-69.924572-70.948571 70.436571 70.436571 0 0 0-69.997714 70.948571z" fill="#3a8ee6" p-id="33726"></path><path d="M420.937143 1.170286H112.274286C90.916571 1.170286 73.581714 18.724571 73.581714 40.228571v939.300572c0 21.577143 17.334857 39.204571 38.546286 39.204571h308.662857c21.284571 0 38.619429-17.554286 38.619429-39.204571V40.301714a38.912 38.912 0 0 0-38.546286-39.131428zM189.44 118.491429H343.771429v391.387428H189.44v-391.314286z m77.165714 826.002285a120.612571 120.612571 0 0 1-119.734857-121.490285c0-67.072 53.540571-121.417143 119.734857-121.417143 66.121143 0 119.734857 54.345143 119.734857 121.417143 0 67.072-53.613714 121.417143-119.734857 121.417142z m470.162286-204.653714a68.461714 68.461714 0 0 0-58.075429 76.946286 67.803429 67.803429 0 0 0 75.849143 59.026285 68.388571 68.388571 0 0 0 58.148572-77.019428 67.803429 67.803429 0 0 0-75.922286-58.953143z" fill="#3a8ee6" p-id="33727"></path><path d="M950.125714 933.010286L832.512 33.060571a37.449143 37.449143 0 0 0-41.910857-32.548571L494.884571 40.301714a37.741714 37.741714 0 0 0-32.109714 42.422857l117.686857 900.022858a37.449143 37.449143 0 0 0 41.837715 32.475428l295.789714-39.789714a37.741714 37.741714 0 0 0 32.036571-42.422857zM583.533714 142.848l147.821715-19.894857 49.005714 375.003428-147.821714 19.894858-49.005715-375.003429z m177.371429 781.458286a116.077714 116.077714 0 0 1-129.901714-100.937143 117.174857 117.174857 0 0 1 99.474285-131.876572 116.077714 116.077714 0 0 1 129.901715 100.937143 117.101714 117.101714 0 0 1-99.474286 131.876572z" fill="#3a8ee6" p-id="33728"></path></svg>