<svg t="1643095130474" class="icon" viewBox="0 0 1024 1024" version="1.1" xmlns="http://www.w3.org/2000/svg" p-id="10809" width="300" height="300"><path d="M528 768v-105.6l59.2-65.6a17.6 17.6 0 0 0 4.8-11.2V512H432v73.6a17.6 17.6 0 0 0 4.8 11.2l59.2 65.6V768z" p-id="10810"></path><path d="M976 955.2l-128-400a19.2 19.2 0 0 0-16-11.2H624v41.6a48 48 0 0 1-12.8 32L560 675.2V752h64v32H283.2l-20.8 64h515.2l-72-203.2 28.8-9.6 80 224A14.4 14.4 0 0 1 800 880H240a16 16 0 0 1-16-20.8l32-96a19.2 19.2 0 0 1 16-11.2h192v-76.8l-51.2-57.6a48 48 0 0 1-12.8-32V544H192a19.2 19.2 0 0 0-16 11.2l-128 400A16 16 0 0 0 64 976h896a16 16 0 0 0 16-20.8zM574.4 675.2l51.2-41.6 20.8 24-51.2 43.2z m35.2 62.4l-8-30.4 65.6-17.6 6.4 32z m-211.2-104l51.2 41.6-20.8 25.6-51.2-43.2z m-41.6 56l65.6 17.6-8 30.4-64-16z" p-id="10811"></path><path d="M368 48m16 0l256 0q16 0 16 16l0 400q0 16-16 16l-256 0q-16 0-16-16l0-400q0-16 16-16Z" p-id="10812"></path></svg>


