<?xml version="1.0" standalone="no"?><!DOCTYPE svg PUBLIC "-//W3C//DTD SVG 1.1//EN" "http://www.w3.org/Graphics/SVG/1.1/DTD/svg11.dtd"><svg t="1600159565056" class="icon" viewBox="0 0 1024 1024" version="1.1" xmlns="http://www.w3.org/2000/svg" p-id="4296" width="300" height="300" xmlns:xlink="http://www.w3.org/1999/xlink"><defs><style type="text/css"></style></defs><path d="M1013.978353 496.047686l9.647686 17.212236-9.647686 17.214745C929.53851 680.618667 730.252549 833.254902 511.799216 833.254902c-218.49098 0-417.741804-152.636235-501.692236-302.782745L0 513.262431l10.10949-17.212235C94.054902 345.364078 293.320784 193.254902 511.799216 193.254902c218.458353 0 417.736784 152.114196 502.176627 302.792784zM511.799216 762.368c180.020706 0 350.453961-125.557961 428.355764-249.108078-77.901804-124.072157-248.335059-249.103059-428.355764-249.103059-180.040784 0-350.489098 125.030902-428.385883 249.103059 77.896784 123.545098 248.345098 249.108078 428.385883 249.108078z m0.010039-57.113098c-105.996549 0-191.929725-85.965804-191.929726-192s85.935686-192 191.929726-192c105.996549 0 191.929725 85.965804 191.929725 192S617.808314 705.254902 511.811765 705.254902z" fill="#2c2c2c" p-id="4297"></path></svg>