<svg t="1645693913550" class="icon" viewBox="0 0 1024 1024" version="1.1" xmlns="http://www.w3.org/2000/svg" p-id="1975" width="200" height="200"><path d="M112 855.999a8 8 0 0 1 8-8h784a8 8 0 0 1 8 8v48a8 8 0 0 1-8 8H120a8 8 0 0 1-8-8v-48z" fill="#707070" p-id="1976"></path><path d="M642.902 191.411L833.821 382.33 381.428 834.722 190.51 643.803l452.392-452.392z m22.627-67.882c-12.496-12.497-32.758-12.497-45.254 0L122.627 621.176c-12.496 12.497-12.496 32.758 0 45.255l236.174 236.173c12.497 12.497 32.758 12.497 45.255 0l497.647-497.647c12.497-12.496 12.497-32.758 0-45.254L665.529 123.529z" fill="#707070" p-id="1977"></path><path d="M611.647 147.999l252.437 252.437-203.647 203.647L408 351.646l203.647-203.647z" fill="#707070" p-id="1978"></path></svg>