<?xml version="1.0" standalone="no"?><!DOCTYPE svg PUBLIC "-//W3C//DTD SVG 1.1//EN" "http://www.w3.org/Graphics/SVG/1.1/DTD/svg11.dtd"><svg t="1572075019870" class="icon" viewBox="0 0 1024 1024" version="1.1" xmlns="http://www.w3.org/2000/svg" p-id="4254" xmlns:xlink="http://www.w3.org/1999/xlink" width="300" height="300"><defs><style type="text/css"></style></defs><path d="M897.364 785.272c-3.19-74.11-40.169-139.87-95.865-182.232V401.922c0-116.167-83.103-213.887-192.922-236.976v-4.599c0-52.99-43.46-96.347-96.576-96.347-53.119 0-96.578 43.356-96.578 96.347v4.599c-109.818 23.089-192.921 120.807-192.921 236.976V603.04c-55.698 42.362-92.677 108.12-95.867 182.232H222.5v0.649h579v-0.649H897.364zM491.625 960h23.974c62.84 0 115.085-47.399 122.679-108.123H385.993c7.596 60.722 59.841 108.121 122.681 108.121h-17.05V960h0.001z" p-id="4255" fill="#2c2c2c"></path></svg>