<svg t="1645693638798" class="icon" viewBox="0 0 1024 1024" version="1.1" xmlns="http://www.w3.org/2000/svg" p-id="1305" width="200" height="200"><path d="M819 190.3c-26.7-26.4-70.1-26.4-96.8 0L437.9 471.1c-3.8 3.8-3.9 10 0 13.8l82.4 82.4c3.8 3.8 9.9 3.8 13.7 0l285-281.5c26.8-26.3 26.8-69.1 0-95.5zM404.9 517.2c-3.8-3.8-9.9-3.8-13.7 0l-63 62.1c-1.8 1.8-4.3 2.8-6.8 2.8-48.1-0.1-112.4 18.7-140.8 110.7-0.1 0.4-0.3 0.8-0.4 1.2-14.1 31.3-42.2 41.9-61.2 45.5-7.7 1.5-10.7 11-5 16.5 118.1 114.1 251.5 42.3 282.9 10.5 27.2-27.6 32.3-61 30.2-88.6-0.2-2.9 0.8-5.7 2.9-7.7l57.5-56.7c3.8-3.8 3.9-10 0-13.8l-82.6-82.5z m-40.3 217.4c-21.4 19.8-112.7 62.7-173.2 29.6-5.6-3.1-6.7-10.6-2.4-15.2 7.5-7.8 18.5-21.2 27.8-40.4 0.1-0.3 0.2-0.5 0.4-0.8 33.3-87.9 110.1-86.6 127.7-85.2 2.3 0.2 4.4 1.2 6 2.8l29.9 29.5c0.2 0.4 24 42.4-16.2 79.7z" p-id="1306"></path></svg>