<?xml version="1.0" standalone="no"?><!DOCTYPE svg PUBLIC "-//W3C//DTD SVG 1.1//EN" "http://www.w3.org/Graphics/SVG/1.1/DTD/svg11.dtd"><svg t="1657681511640" class="icon" viewBox="0 0 1024 1024" version="1.1" xmlns="http://www.w3.org/2000/svg" p-id="2324" xmlns:xlink="http://www.w3.org/1999/xlink" width="200" height="200"><defs><style type="text/css">@font-face { font-family: feedback-iconfont; src: url("//at.alicdn.com/t/font_1031158_u69w8yhxdu.woff2?t=1630033759944") format("woff2"), url("//at.alicdn.com/t/font_1031158_u69w8yhxdu.woff?t=1630033759944") format("woff"), url("//at.alicdn.com/t/font_1031158_u69w8yhxdu.ttf?t=1630033759944") format("truetype"); }
</style></defs><path d="M640 128H384v64h256v-64z m75.88 318.39c12.5 12.5 12.5 32.76 0 45.25L489.61 717.92l-0.47 0.47c-12.5 12.5-32.76 12.5-45.25 0L308.12 582.63c-12.5-12.5-12.5-32.76 0-45.25 12.5-12.5 32.76-12.5 45.25 0L466.53 650.5l204.1-204.1c12.49-12.5 32.76-12.5 45.25-0.01zM320 192H192v704h640V192H704v32c0 15.71-11.32 28.78-26.25 31.48L672 256H352c-17.67 0-32-14.33-32-32v-32zM672 64c17.67 0 32 14.33 32 32v32h160c17.67 0 32 14.33 32 32v768c0 15.71-11.32 28.77-26.25 31.48L864 960H160c-17.67 0-32-14.33-32-32V160c0-17.67 14.33-32 32-32h160V96c0-17.67 14.33-32 32-32h320z" p-id="2325" fill="#ffffff"></path></svg>