<?xml version="1.0" standalone="no"?><!DOCTYPE svg PUBLIC "-//W3C//DTD SVG 1.1//EN" "http://www.w3.org/Graphics/SVG/1.1/DTD/svg11.dtd"><svg t="1578467048132" class="icon" viewBox="0 0 1117 1024" version="1.1" xmlns="http://www.w3.org/2000/svg" p-id="71562" xmlns:xlink="http://www.w3.org/1999/xlink" width="327.24609375" height="300"><defs><style type="text/css"></style></defs><path d="M1084.618031 754.532894l-0.499939-679.042109c0.749908-19.24765-6.249237-38.120347-19.372635-52.243623-13.123398-14.123276-31.371171-22.497254-50.618821-23.247162H77.490971C37.245884 1.374832 5.624744 35.120713 6.874591 75.490785v679.042109c-3.624558 15.123154 0.874893 30.996216 11.873551 41.994874s26.87172 15.498108 41.994873 11.87355h970.006591c15.123154 3.624558 30.996216-0.874893 41.994874-11.87355s15.498108-26.87172 11.873551-41.994874zM276.341697 700.66447H197.35134V485.065788h78.865372v215.598682z m205.849872 0h-78.865373V323.460515h78.865373v377.203955z m205.974857 0H609.301053V107.861833h78.865373v592.802637z m205.849872 0h-78.865373v-484.940803h78.865373v484.940803zM707.414076 862.394727H384.078546V916.263151H114.61144v107.736849h860.020017l2.249725-107.736849H707.414076z" p-id="71563" fill="#3a8ee6"></path></svg>