<?xml version="1.0" standalone="no"?><!DOCTYPE svg PUBLIC "-//W3C//DTD SVG 1.1//EN" "http://www.w3.org/Graphics/SVG/1.1/DTD/svg11.dtd"><svg t="1578466493579" class="icon" viewBox="0 0 1024 1024" version="1.1" xmlns="http://www.w3.org/2000/svg" p-id="44830" xmlns:xlink="http://www.w3.org/1999/xlink" width="300" height="300"><defs><style type="text/css"></style></defs><path d="M497.800372 522.0238c130.11286 0 235.854127-157.236084 235.854127-286.169673a235.854127 235.854127 0 1 0-471.708254 0c0.39309 130.11286 105.741267 286.169674 235.854127 286.169673zM871.236073 721.320537a82.942035 82.942035 0 0 1 7.468714-34.591938l-57.784261-34.198849a78.618042 78.618042 0 0 1-131.292131 0l-53.067178 31.054127a82.942035 82.942035 0 0 1 9.041074 39.309021 81.369674 81.369674 0 0 1-78.618042 82.155854v66.039156a81.369674 81.369674 0 0 1 73.114779 81.762764 82.942035 82.942035 0 0 1-7.861804 35.378119l60.928983 35.771209a78.618042 78.618042 0 0 1 130.89904-4.323992l55.81881-33.019578a82.942035 82.942035 0 0 1-7.861804-35.378119 81.369674 81.369674 0 0 1 73.114779-81.762764v-66.432246a81.369674 81.369674 0 0 1-73.900959-81.762764z m-117.927064 168.635701a60.142802 60.142802 0 1 1 58.963532-60.142802 59.356622 59.356622 0 0 1-56.998081 60.142802zM533.571581 617.937812a49.529367 49.529367 0 0 0-34.198848-11.792706 51.887908 51.887908 0 0 0-53.460269 50.315547v223.27524s0 23.585413-39.309021 23.585412-42.060653-23.585413-42.060653-23.585412l-78.618042-275.163148-105.741267 53.853359A203.620729 203.620729 0 0 0 77.193846 825.882534v69.576967a115.175432 115.175432 0 0 0 115.175432 115.175432h351.029559a307.396545 307.396545 0 0 1-9.827256-393.090211z" fill="#f56c6c" p-id="44831" data-spm-anchor-id="a313x.7781069.0.i20" class="selected"></path></svg>