<?xml version="1.0" standalone="no"?><!DOCTYPE svg PUBLIC "-//W3C//DTD SVG 1.1//EN" "http://www.w3.org/Graphics/SVG/1.1/DTD/svg11.dtd"><svg t="1580539630553" class="icon" viewBox="0 0 1024 1024" version="1.1" xmlns="http://www.w3.org/2000/svg" p-id="4951" xmlns:xlink="http://www.w3.org/1999/xlink" width="200" height="200"><defs><style type="text/css"></style></defs><path d="M782.9 535.4c15.1 0 29.1 5.8 39.6 16.3l34.2 34.2c10.5 10.5 16.3 24.5 16.3 39.6s-5.8 29.1-16.3 39.6l-274.1 274-115.6 2.3 2.2-115.7 274.1-274.1c10.5-10.5 24.6-16.2 39.6-16.2m0-64c-30.8 0-61.5 11.7-84.9 35L414.3 790.1c-5.5 5.5-8.6 12.9-8.8 20.6l-3.8 196 195.8-4c7.7-0.2 15.1-3.3 20.6-8.8l283.8-283.8c46.7-46.7 46.7-123 0-169.7l-34.2-34.2c-23.3-23.2-54-34.8-84.8-34.8z" fill="" p-id="4952"></path><path d="M689.9 543.8l-45.2 45.3 166.4 166.3 45.2-45.2-166.4-166.4z" fill="" p-id="4953"></path><path d="M292.4 1024H215c-83.8 0-152-68.2-152-152V152C63 68.2 131.2 0 215 0h530c83.8 0 152 68.2 152 152v198.1c0 17.7-14.3 32-32 32s-32-14.3-32-32V152c0-48.5-39.5-88-88-88H215c-48.5 0-88 39.5-88 88v720c0 48.5 39.5 88 88 88h77.4c17.7 0 32 14.3 32 32s-14.3 32-32 32z" fill="" p-id="4954"></path><path d="M735 319.9H223c-17.6 0-32-14.4-32-32s14.4-32 32-32h512c17.6 0 32 14.4 32 32s-14.4 32-32 32zM543 511.9H223c-17.6 0-32-14.4-32-32s14.4-32 32-32h320c17.6 0 32 14.4 32 32s-14.4 32-32 32zM381.8 703.9H223c-17.6 0-32-14.4-32-32s14.4-32 32-32h158.8c17.6 0 32 14.4 32 32s-14.4 32-32 32z" fill="" p-id="4955"></path></svg>