<?xml version="1.0" standalone="no"?><!DOCTYPE svg PUBLIC "-//W3C//DTD SVG 1.1//EN" "http://www.w3.org/Graphics/SVG/1.1/DTD/svg11.dtd"><svg t="1571225678264" class="icon" viewBox="0 0 1024 1024" version="1.1" xmlns="http://www.w3.org/2000/svg" p-id="6050" xmlns:xlink="http://www.w3.org/1999/xlink" width="300" height="300"><defs><style type="text/css"></style></defs><path d="M1022.730881 0l-2.072928 0-61.826851 0-2.072928 0L511.538781 0 447.639002 0l-2.072928 0L383.664568 63.898757l0.075677 0-383.394586 383.394586 0 0 0 0 0 63.898757 0 0 0 105.832859 0.508261 0-0.508261 1.298776 159.658432 62.490556 0 106.807453L0.345658 850.113323l0.226007 0.578825-0.226007 0 0 109.054233 0 0 0 63.898757L573.36461 1023.645138l0 0.354862 0.348726-0.354862 1.723179 0 0-1.753859 444.773513-452.67048 0.447924 0 0-0.456106 0-63.898757 0-100.50481-0.346681-0.137036 0.256687-0.656547L850.944744 337.175546l169.310281-172.315874 0.40395 0 0-0.411109L1020.658975 100.548784l0-98.476878L1022.730881 0zM447.639002 63.898757l447.293343 0-383.394586 383.394586 0 0L64.244415 447.293343 447.639002 63.898757zM64.244415 893.72254l159.658432-62.490556-0.30782-0.786424 0.30782 0L223.902847 636.751015l-1.162762 0L64.244415 574.715541l0-63.522419 447.293343 0 0 64.143172L353.043111 637.371768l-1.162762 0L351.880349 831.066313l0.30782 0-0.30782 0.786424 159.658432 62.490556 0 65.403087L64.244415 959.746381 64.244415 893.72254zM465.935381 807.874469l392.488064-399.152728 64.690294 25.319996-397.893835 397.036848L465.935381 807.874469zM575.437538 957.992522 575.437538 850.692148l-0.108402 0-1.411268-0.552235L956.759196 468.122847l0 101.097951 0.666773 0L575.437538 957.992522zM809.728548 389.662459 417.240484 788.815186l-1.460356-0.571666L415.780128 681.436068l159.658432-62.490556-0.383497-0.979707 227.195807-231.229171L809.728548 389.662459zM957.469943 164.859672 575.437538 553.67537l0-42.48327 0 0L575.437538 447.293343 956.759196 65.971685l0 98.887987L957.469943 164.859672z" p-id="6051"></path></svg>