<?xml version="1.0" standalone="no"?><!DOCTYPE svg PUBLIC "-//W3C//DTD SVG 1.1//EN" "http://www.w3.org/Graphics/SVG/1.1/DTD/svg11.dtd"><svg t="1600165458722" class="icon" viewBox="0 0 1024 1024" version="1.1" xmlns="http://www.w3.org/2000/svg" p-id="23136" xmlns:xlink="http://www.w3.org/1999/xlink" width="300" height="300"><defs><style type="text/css"></style></defs><path d="M672 160h-512a32 32 0 0 1 0-64h512a32 32 0 0 1 0 64zM672 672h-512a32 32 0 0 1 0-64h512a32 32 0 0 1 0 64zM864 928h-704a32 32 0 0 1 0-64h704a32 32 0 0 1 0 64zM864 416h-704a32 32 0 0 1 0-64h704a32 32 0 0 1 0 64z" p-id="23137" fill="#2c2c2c"></path></svg>