<?xml version="1.0" standalone="no"?><!DOCTYPE svg PUBLIC "-//W3C//DTD SVG 1.1//EN" "http://www.w3.org/Graphics/SVG/1.1/DTD/svg11.dtd"><svg t="1600171296378" class="icon" viewBox="0 0 1024 1024" version="1.1" xmlns="http://www.w3.org/2000/svg" p-id="39802" xmlns:xlink="http://www.w3.org/1999/xlink" width="300" height="300"><defs><style type="text/css"></style></defs><path d="M107.75 854.11h810.5c5.38 0 9.75 4.36 9.75 9.75v54.61c0 5.38-4.36 9.75-9.75 9.75h-810.5c-5.38 0-9.75-4.36-9.75-9.75v-54.61c0-5.38 4.37-9.75 9.75-9.75zM320.02 635.96h385.95c2.56 0 4.64 4.36 4.64 9.75v54.61c0 5.38-2.08 9.75-4.64 9.75H320.02c-2.56 0-4.64-4.36-4.64-9.75v-54.61c0-5.38 2.08-9.75 4.64-9.75zM320.02 417.81h385.95c2.56 0 4.64 4.36 4.64 9.75v54.61c0 5.38-2.08 9.75-4.64 9.75H320.02c-2.56 0-4.64-4.36-4.64-9.75v-54.61c0-5.38 2.08-9.75 4.64-9.75z" fill="#2c2c2c" p-id="39803"></path></svg>