<?xml version="1.0" standalone="no"?><!DOCTYPE svg PUBLIC "-//W3C//DTD SVG 1.1//EN" "http://www.w3.org/Graphics/SVG/1.1/DTD/svg11.dtd"><svg t="1585298292271" class="icon" viewBox="0 0 1024 1024" version="1.1" xmlns="http://www.w3.org/2000/svg" p-id="2614" xmlns:xlink="http://www.w3.org/1999/xlink" width="300" height="300"><defs><style type="text/css"></style></defs><path d="M911.36 225.28c0-10.24-10.24-15.36-15.36-5.12l-56.32 56.32c-30.72-40.96-66.56-76.8-107.52-102.4-81.92-51.2-184.32-76.8-276.48-66.56C358.4 117.76 271.36 163.84 204.8 230.4c-51.2 51.2-87.04 122.88-102.4 189.44-5.12 20.48 10.24 35.84 25.6 35.84h56.32c10.24 0 20.48-5.12 25.6-20.48 15.36-46.08 40.96-92.16 76.8-122.88 51.2-46.08 112.64-76.8 179.2-76.8 66.56-5.12 133.12 15.36 184.32 56.32 35.84 25.6 61.44 56.32 81.92 92.16l-56.32 61.44c-5.12 5.12 0 15.36 5.12 15.36h220.16c5.12 0 10.24-5.12 10.24-10.24V225.28zM215.04 629.76c-5.12-10.24-15.36-15.36-25.6-15.36H133.12c-20.48 0-30.72 20.48-25.6 35.84 15.36 35.84 30.72 66.56 51.2 97.28 10.24 10.24 25.6 15.36 35.84 5.12l46.08-35.84c10.24-10.24 10.24-25.6 5.12-35.84-15.36-15.36-25.6-35.84-30.72-51.2zM424.96 803.84c-25.6-5.12-51.2-15.36-76.8-30.72-15.36-5.12-30.72-5.12-35.84 5.12l-30.72 40.96c-10.24 10.24-5.12 30.72 5.12 35.84 35.84 20.48 71.68 35.84 112.64 46.08 15.36 5.12 30.72-5.12 30.72-20.48l10.24-51.2c5.12-10.24-5.12-20.48-15.36-25.6zM670.72 793.6c-5.12-10.24-20.48-15.36-35.84-10.24-25.6 10.24-51.2 20.48-81.92 25.6-15.36 0-25.6 15.36-20.48 25.6l5.12 51.2c0 15.36 15.36 25.6 30.72 25.6 40.96-5.12 76.8-20.48 117.76-35.84 15.36-5.12 15.36-20.48 10.24-35.84l-25.6-46.08zM865.28 614.4h-51.2c-10.24 0-20.48 5.12-25.6 15.36-10.24 25.6-30.72 56.32-46.08 76.8-10.24 10.24-10.24 25.6 0 35.84l35.84 35.84c10.24 10.24 25.6 10.24 35.84 0 30.72-35.84 56.32-76.8 71.68-128 10.24-20.48 0-35.84-20.48-35.84z" p-id="2615" fill="#ffffff"></path></svg>