<svg t="1678672194533" viewBox="0 0 1024 1024" version="1.1" xmlns="http://www.w3.org/2000/svg" p-id="43460" width="200" height="200"><path d="M645.37536 227.008v292.352c0 53.76 44.8 97.472 99.84 97.472h21.632L512.25536 906.88 257.66336 616.96h21.76c55.04 0 99.776-43.776 99.776-97.536V227.008h266.176m33.28-64.96h-332.8a32.96 32.96 0 0 0-33.28 32.448v324.864c0 17.92-14.912 32.512-33.216 32.512H146.23936c-18.304 0-23.488 11.136-11.584 24.64l355.968 405.568a28.8 28.8 0 0 0 21.632 10.176 28.8 28.8 0 0 0 21.632-10.176l355.968-405.568c11.904-13.504 6.72-24.64-11.584-24.64h-133.12a32.96 32.96 0 0 1-33.28-32.512V194.56a32.96 32.96 0 0 0-33.28-32.448z m-33.28-97.472c0-17.92 14.848-32.512 33.28-32.512 18.368 0 33.28 14.528 33.28 32.512 0 17.92-14.912 32.448-33.28 32.448a32.832 32.832 0 0 1-33.28-32.448z m-332.8 0c0-17.92 14.912-32.512 33.28-32.512 18.432 0 33.28 14.528 33.28 32.512 0 17.92-14.848 32.448-33.28 32.448a32.896 32.896 0 0 1-33.28-32.448zM345.91936 32h332.8v64.96h-332.8V32.064z" p-id="43461"></path></svg>