<?xml version="1.0" standalone="no"?><!DOCTYPE svg PUBLIC "-//W3C//DTD SVG 1.1//EN" "http://www.w3.org/Graphics/SVG/1.1/DTD/svg11.dtd"><svg t="1585298335914" class="icon" viewBox="0 0 1024 1024" version="1.1" xmlns="http://www.w3.org/2000/svg" p-id="4294" xmlns:xlink="http://www.w3.org/1999/xlink" width="300" height="300"><defs><style type="text/css"></style></defs><path d="M102.4 225.28c0-10.24 10.24-15.36 15.36-5.12l56.32 56.32c30.72-40.96 66.56-76.8 107.52-102.4 81.92-51.2 184.32-76.8 276.48-66.56 97.28 10.24 184.32 56.32 250.88 128 51.2 51.2 87.04 122.88 102.4 189.44 5.12 15.36-10.24 30.72-25.6 30.72h-56.32c-10.24 0-20.48-5.12-25.6-20.48-15.36-46.08-40.96-92.16-76.8-122.88-51.2-46.08-112.64-76.8-179.2-76.8-66.56-10.24-133.12 10.24-184.32 51.2-35.84 25.6-61.44 56.32-81.92 92.16l56.32 61.44c5.12 5.12 0 15.36-5.12 15.36H112.64c-5.12 0-10.24-5.12-10.24-10.24V225.28zM803.84 629.76c5.12-10.24 15.36-15.36 20.48-15.36h56.32c20.48 0 30.72 20.48 25.6 35.84-15.36 35.84-30.72 66.56-51.2 97.28-10.24 10.24-25.6 15.36-35.84 5.12l-46.08-35.84c-10.24-10.24-10.24-25.6-5.12-35.84 15.36-15.36 25.6-35.84 35.84-51.2zM593.92 803.84c25.6-5.12 51.2-15.36 76.8-30.72 10.24-5.12 25.6-5.12 35.84 5.12l30.72 40.96c10.24 10.24 5.12 30.72-5.12 35.84-35.84 20.48-71.68 35.84-112.64 46.08-15.36 5.12-30.72-5.12-30.72-20.48l-10.24-51.2c-5.12-10.24 0-20.48 15.36-25.6zM343.04 793.6c5.12-10.24 20.48-15.36 35.84-10.24 25.6 10.24 51.2 20.48 81.92 25.6 15.36 0 25.6 15.36 20.48 25.6l-5.12 51.2c0 15.36-15.36 25.6-30.72 25.6-40.96-5.12-76.8-20.48-117.76-35.84-15.36-5.12-15.36-20.48-10.24-35.84l25.6-46.08zM148.48 614.4h51.2c10.24 0 20.48 5.12 25.6 15.36 10.24 25.6 30.72 56.32 46.08 76.8 10.24 10.24 10.24 25.6 0 35.84l-35.84 35.84c-10.24 10.24-25.6 10.24-35.84 0-30.72-35.84-56.32-76.8-71.68-128-10.24-20.48 5.12-35.84 20.48-35.84z" p-id="4295" fill="#ffffff"></path></svg>