<?xml version="1.0" standalone="no"?><!DOCTYPE svg PUBLIC "-//W3C//DTD SVG 1.1//EN" "http://www.w3.org/Graphics/SVG/1.1/DTD/svg11.dtd"><svg t="1585298791431" class="icon" viewBox="0 0 1024 1024" version="1.1" xmlns="http://www.w3.org/2000/svg" p-id="8356" xmlns:xlink="http://www.w3.org/1999/xlink" width="300" height="300"><defs><style type="text/css"></style></defs><path d="M913.296 551.592L746.639 719.088c-21.728 21.84-57.008 21.84-78.792 0-21.728-21.896-21.728-57.344 0-79.184L739.36 568H428.728c-30.8 0-55.721-25.088-55.721-56s24.921-56 55.721-56H739.92l-72.072-72.408c-21.728-21.84-21.728-57.344 0-79.184 21.784-21.896 57.064-21.896 78.792 0l166.657 167.496c10.919 10.976 16.295 25.424 16.24 39.816 0.054 14.448-5.322 28.896-16.241 39.872zM428.728 176h-222.88v672h222.88c30.745 0 55.664 25.088 55.664 56s-24.919 56-55.664 56h-222.88c-61.489 0-111.384-50.12-111.384-112V176c0-61.879 49.895-112 111.384-112h222.88c30.745 0 55.664 25.088 55.664 56s-24.92 56-55.664 56z" fill="#ffffff" p-id="8357"></path></svg>