<?xml version="1.0" standalone="no"?><!DOCTYPE svg PUBLIC "-//W3C//DTD SVG 1.1//EN" "http://www.w3.org/Graphics/SVG/1.1/DTD/svg11.dtd"><svg t="1585291235570" class="icon" viewBox="0 0 1024 1024" version="1.1" xmlns="http://www.w3.org/2000/svg" p-id="14254" xmlns:xlink="http://www.w3.org/1999/xlink" width="300" height="300"><defs><style type="text/css"></style></defs><path d="M911.9 112.9C882.2 82 840.2 64.7 797.5 64.6H226.3c-29.8 0-58.9 6.4-84.7 21.6-46.5 27.3-75.9 77.2-78.3 130.8-1.2 26.7-0.1 53.6-0.1 80.2v491.3c0 18.8 1 37.6 6.4 55.8C84.8 895 125 935.3 175.4 951c18.5 5.8 37.6 6.8 56.8 6.8h566.2c54.1-0.3 104.4-28.5 133.6-73.9 17-26.4 24.4-57.3 24.4-88.4V688.2v-187-183.5-93.8c0-41.3-15.9-81.2-44.5-111z m-15.5 686.7c0 4.5-0.3 9-0.7 13.6-1.4 8.2-3.6 16.2-6.6 24-2.9 6.3-6.2 12.3-10 18.1-0.9 1.4-1.9 2.7-2.9 4.1-0.1 0.1-0.2 0.3-0.3 0.4-2.6 3.2-5.4 6.3-8.4 9.2-2.8 2.8-5.7 5.4-8.7 8l-0.3 0.3c-1.4 0.9-2.7 2-4.1 2.9-6 4-12.3 7.5-18.8 10.5-7.9 3-16 5.1-24.3 6.6-4.3 0.4-8.5 0.7-12.9 0.7H285.6c-21.4 0-42.8 0.1-64.3 0-4.5 0-9-0.3-13.6-0.7-8.2-1.4-16.2-3.6-24-6.6-6.3-2.9-12.3-6.2-18.1-10-1.4-0.9-2.7-1.9-4.1-2.9-0.1-0.1-0.3-0.2-0.4-0.3-3.2-2.6-6.3-5.4-9.2-8.4-2.8-2.8-5.4-5.7-8-8.7l-0.3-0.3c-0.9-1.4-2-2.7-2.9-4.1-4-6-7.5-12.3-10.5-18.8-2.9-7.8-5.1-15.9-6.5-24.1-0.8-8.4-0.7-16.9-0.7-25.4v-40.8-140.2-170.6-147c0-22.1-0.1-44.2 0-66.2 0-4.5 0.3-9 0.7-13.6 1.4-8.2 3.6-16.2 6.6-24 2.9-6.3 6.2-12.3 10-18.1 0.9-1.4 1.9-2.7 2.9-4.1 0.1-0.1 0.2-0.3 0.3-0.4 2.6-3.2 5.4-6.3 8.4-9.2 2.8-2.8 5.7-5.4 8.7-8l0.3-0.3c1.4-0.9 2.7-2 4.1-2.9 6-4 12.3-7.5 18.8-10.5 7.8-2.9 15.8-5.1 24.1-6.5 8.4-0.8 16.9-0.7 25.4-0.7h498.6c22.1 0 44.2-0.1 66.2 0 4.5 0 9 0.3 13.6 0.7 8.2 1.4 16.2 3.6 24 6.6 6.3 2.9 12.3 6.2 18.1 10 1.4 0.9 2.7 1.9 4.1 2.9 0.1 0.1 0.3 0.2 0.4 0.3 3.2 2.6 6.3 5.4 9.2 8.4 2.8 2.8 5.4 5.7 8 8.7l0.3 0.3c0.9 1.4 2 2.7 2.9 4.1 4 6 7.5 12.3 10.5 18.8 2.9 7.8 5.1 15.8 6.5 24.1 0.8 8.4 0.7 16.9 0.7 25.4v498.6c0 22 0.1 44.1 0 66.1z" fill="#ffffff" p-id="14255"></path><path d="M225 392.7h40v183.5h-40zM265 750.6V625.2h-40v125.4c0 26.6 21.7 48.3 48.3 48.3h13.6v-40h-13.6c-4.5 0-8.3-3.8-8.3-8.3zM389.6 223.8h183.5v40H389.6zM265 272.1c0-4.5 3.8-8.3 8.3-8.3h67.4v-40h-67.4c-26.6 0-48.3 21.7-48.3 48.3v71.7h40v-71.7zM335.9 758.9h183.5v40H335.9zM751.8 223.8H622.1v40h129.7c4.5 0 8.3 3.8 8.3 8.3v9.3h40v-9.3c0-26.6-21.7-48.3-48.3-48.3zM760.1 330.4h40v183.5h-40zM760.1 562.8h40v183.5h-40zM568.3 758.9h183.5v40H568.3z" fill="#ffffff" p-id="14256"></path></svg>