<?xml version="1.0" standalone="no"?><!DOCTYPE svg PUBLIC "-//W3C//DTD SVG 1.1//EN" "http://www.w3.org/Graphics/SVG/1.1/DTD/svg11.dtd"><svg t="1585290328149" class="icon" viewBox="0 0 1024 1024" version="1.1" xmlns="http://www.w3.org/2000/svg" p-id="12622" xmlns:xlink="http://www.w3.org/1999/xlink" width="300" height="300"><defs><style type="text/css"></style></defs><path d="M815.136427 725.967238l166.765714 166.765714a62.659048 62.659048 0 0 1-88.600381 88.649143l-166.814476-166.765714a438.710857 438.710857 0 1 1 88.600381-88.649143z m-288.670477-325.339428h125.318096a62.70781 62.70781 0 0 1 0 125.318095h-125.318096v125.318095a62.659048 62.659048 0 1 1-125.318095 0v-125.318095H275.732236a62.70781 62.70781 0 0 1 0-125.366857h125.318095v-125.318096a62.659048 62.659048 0 1 1 125.318096 0v125.318096h0.097523z m-62.659047 376.051809a313.344 313.344 0 1 0 0-626.736762 313.344 313.344 0 1 0 0 626.736762z" p-id="12623" fill="#ffffff"></path></svg>