<?xml version="1.0" standalone="no"?><!DOCTYPE svg PUBLIC "-//W3C//DTD SVG 1.1//EN" "http://www.w3.org/Graphics/SVG/1.1/DTD/svg11.dtd"><svg t="1585290520619" class="icon" viewBox="0 0 1024 1024" version="1.1" xmlns="http://www.w3.org/2000/svg" p-id="13422" xmlns:xlink="http://www.w3.org/1999/xlink" width="300" height="300"><defs><style type="text/css"></style></defs><path d="M823.552 751.616l184.9856 184.9856a49.664 49.664 0 0 1 0 71.936 49.6128 49.6128 0 0 1-71.936 0l-184.9856-184.9344c-185.0368 143.872-447.1296 133.5296-616.704-36.0448-179.8656-179.8656-179.8656-472.7808 0-652.6464s472.7808-179.8656 652.6464 0c169.6256 169.5744 179.8656 436.7872 35.9936 616.6528z m-617.0624-39.7312c143.872 143.104 369.9712 143.104 508.7744 0 138.752-137.984 138.752-367.9744 0-506.0096-138.752-137.984-370.0224-137.984-508.7744 0-138.752 138.0352-138.752 368.0256 0 506.0096zM307.2 409.6h307.2a51.2 51.2 0 1 1 0 102.4H307.2a51.2 51.2 0 1 1 0-102.4z" p-id="13423" fill="#ffffff"></path></svg>