<?xml version="1.0" standalone="no"?><!DOCTYPE svg PUBLIC "-//W3C//DTD SVG 1.1//EN" "http://www.w3.org/Graphics/SVG/1.1/DTD/svg11.dtd"><svg t="1649733080966" class="icon" viewBox="0 0 1024 1024" version="1.1" xmlns="http://www.w3.org/2000/svg" p-id="243286" xmlns:xlink="http://www.w3.org/1999/xlink" width="300" height="300"><path d="M204.8 612.3008a102.4 102.4 0 0 1 102.4 102.4v153.6a102.4 102.4 0 1 1-204.8 0v-153.6a102.4 102.4 0 0 1 102.4-102.4z m307.2-102.4a102.4 102.4 0 0 1 102.4 102.4v256a102.4 102.4 0 1 1-204.8 0v-256a102.4 102.4 0 0 1 102.4-102.4z m307.2-102.4a102.4 102.4 0 0 1 102.4 102.4v358.4a102.4 102.4 0 1 1-204.8 0v-358.4a102.4 102.4 0 0 1 102.4-102.4z m106.5984-331.9808l-26.0608 242.7904a38.4 38.4 0 0 1-76.5952-2.9696l0.256-5.2224 9.6256-90.368-209.0496 178.8928-258.2016-69.4784-184.4224 193.024a38.4 38.4 0 0 1-49.8688 4.864l-4.4032-3.584a38.4 38.4 0 0 1-4.864-49.92l3.584-4.4032L341.8112 243.2l263.0656 70.7584 173.4656-148.4288-91.648 8.0896a38.4 38.4 0 0 1-40.8064-29.7472l-0.8192-5.1712a38.4 38.4 0 0 1 29.7472-40.8064l5.1712-0.8192 245.8624-21.504z" p-id="243287"></path></svg>