<?xml version="1.0" standalone="no"?><!DOCTYPE svg PUBLIC "-//W3C//DTD SVG 1.1//EN" "http://www.w3.org/Graphics/SVG/1.1/DTD/svg11.dtd"><svg t="1649726657081" class="icon" viewBox="0 0 1024 1024" version="1.1" xmlns="http://www.w3.org/2000/svg" p-id="6251" xmlns:xlink="http://www.w3.org/1999/xlink" width="300" height="300"><path d="M757.76 0L303.04 167.552v41.856l413.44-134.848V1024H992v-60.544h-96.384v0.064V116.416L757.76 0zM32 349.12v674.816h59.776V381.696l344.384-111.744v753.984h179.2V260.736L491.392 186.304 32 349.12z m128.64 93.056v97.792l215.936-55.872V372.416L160.64 442.176z m0 167.552v93.12l215.936-41.92V553.856l-215.936 55.872z m0 158.336v93.056l215.936-23.296v-107.072l-215.936 37.312z m0 158.208V1024h215.936v-111.744l-215.936 14.016z" p-id="6252"></path></svg>