<?xml version="1.0" standalone="no"?><!DOCTYPE svg PUBLIC "-//W3C//DTD SVG 1.1//EN" "http://www.w3.org/Graphics/SVG/1.1/DTD/svg11.dtd"><svg t="1649729218624" class="icon" viewBox="0 0 1024 1024" version="1.1" xmlns="http://www.w3.org/2000/svg" p-id="92504" xmlns:xlink="http://www.w3.org/1999/xlink" width="300" height="300">
<path d="M81.92 354.986667l-34.133333-230.4c-1.706667-20.48 13.653333-39.253333 34.133333-39.253334h203.093333c54.613333 68.266667 56.32 85.333333 141.653334 85.333334h513.706666c22.186667 0 37.546667 20.48 34.133334 40.96l-29.013334 145.066666c-3.413333 15.36-17.066667 27.306667-34.133333 27.306667h-150.186667L593.92 256l-63.146667 81.92 61.44 46.08h-83.626666L341.333333 256l-98.986666 128H114.346667c-17.066667 0-30.72-11.946667-32.426667-29.013333zM6.826667 510.293333l73.386666 401.066667c3.413333 17.066667 17.066667 27.306667 34.133334 27.306667h797.013333c17.066667 0 30.72-11.946667 34.133333-27.306667l73.386667-401.066667c3.413333-20.48-11.946667-40.96-34.133333-40.96H40.96c-22.186667 0-37.546667 18.773333-34.133333 40.96z m356.693333 249.173334c0-8.533333 5.12-15.36 11.946667-15.36h69.973333c27.306667-17.066667 25.6-40.96 25.6-40.96 1.706667-11.946667-23.893333-42.666667-23.893333-42.666667-11.946667-13.653333-18.773333-32.426667-18.773334-49.493333 0-42.666667 35.84-78.506667 78.506667-80.213334h6.826667c44.373333 1.706667 78.506667 37.546667 78.506666 80.213334 0 18.773333-6.826667 35.84-18.773333 49.493333 0 0-23.893333 30.72-23.893333 42.666667 0 0-3.413333 22.186667 25.6 40.96H648.533333c6.826667 0 11.946667 6.826667 11.946667 15.36v56.32H363.52v-56.32z m296.96 85.333333c0 8.533333-5.12 15.36-11.946667 15.36H375.466667c-6.826667 0-11.946667-6.826667-11.946667-15.36v-5.12h296.96v5.12z" p-id="92505"></path></svg>