<?xml version="1.0" standalone="no"?><!DOCTYPE svg PUBLIC "-//W3C//DTD SVG 1.1//EN" "http://www.w3.org/Graphics/SVG/1.1/DTD/svg11.dtd"><svg t="1649728119526" class="icon" viewBox="0 0 1024 1024" version="1.1" xmlns="http://www.w3.org/2000/svg" p-id="42090" xmlns:xlink="http://www.w3.org/1999/xlink" width="300" height="300"><path d="M201.142857 832v-93.074286L25.782857 914.285714H118.857143a82.468571 82.468571 0 0 0 82.285714-82.285714z" p-id="42091"></path><path d="M310.857143 832v-164.571429a118.857143 118.857143 0 0 1 118.857143-118.857142H548.571429v-73.142858H0v73.142858h118.857143a118.857143 118.857143 0 0 1 118.857143 118.857142v164.571429A118.857143 118.857143 0 0 1 118.857143 950.857143H0v73.142857h548.571429v-73.142857h-118.857143a118.857143 118.857143 0 0 1-118.857143-118.857143zM998.217143 0H464.64l-438.857143 438.857143h533.577143l438.857143-438.857143zM585.142857 464.64v58.148571l197.302857-197.485714L1024 83.931429V25.782857l-438.857143 438.857143zM585.142857 939.885714v56.685715l334.08-350.902858L1024 541.074286v-58.148572l-78.445714 78.628572L585.142857 939.885714z" p-id="42092"></path><path d="M998.217143 457.142857H905.142857a18.285714 18.285714 0 0 1-4.571428-0.914286A18.285714 18.285714 0 0 1 896 457.142857a119.04 119.04 0 0 1-112.64-81.005714L579.84 579.84A18.285714 18.285714 0 0 1 566.857143 585.142857h-137.142857a82.468571 82.468571 0 0 0-82.285715 82.285714v164.571429a82.468571 82.468571 0 0 0 82.285715 82.285714h129.28l360.411428-378.331428zM433.554286 853.211429A18.285714 18.285714 0 1 1 438.857143 841.142857a18.285714 18.285714 0 0 1-5.302857 12.068572z m73.142857-76.982858l-18.285714 18.285715a18.285714 18.285714 0 0 1-26.331429-25.234286l18.285714-18.285714a18.285714 18.285714 0 1 1 26.331429 25.234285z m73.142857-76.617142l-18.285714 19.2a18.285714 18.285714 0 0 1-26.331429-25.234286l18.285714-18.285714a18.285714 18.285714 0 1 1 26.331429 25.234285z m73.142857-76.617143l-18.285714 18.285714a18.285714 18.285714 0 1 1-26.331429-25.234286l18.285715-19.2a18.285714 18.285714 0 0 1 26.331428 25.234286z m73.142857-76.617143l-18.285714 19.2a18.285714 18.285714 0 1 1-26.331429-25.234286l18.285715-19.2a18.285714 18.285714 0 0 1 26.331428 25.234286z m54.857143-57.234286a18.285714 18.285714 0 0 1-25.965714 0 18.285714 18.285714 0 0 1-5.302857-12.8 18.285714 18.285714 0 0 1 11.337143-17.005714 18.285714 18.285714 0 0 1 19.931428 4.022857 18.285714 18.285714 0 0 1 5.302857 12.982857 18.285714 18.285714 0 0 1-5.302857 12.8z" p-id="42093"></path></svg>