<?xml version="1.0" standalone="no"?><!DOCTYPE svg PUBLIC "-//W3C//DTD SVG 1.1//EN" "http://www.w3.org/Graphics/SVG/1.1/DTD/svg11.dtd"><svg t="1649731814601" class="icon" viewBox="0 0 1194 1024" version="1.1" xmlns="http://www.w3.org/2000/svg" p-id="176693" xmlns:xlink="http://www.w3.org/1999/xlink" width="349.8046875" height="300"><path d="M1097.386667 711.168a170.24 170.24 0 0 0-168.533334-194.901333c-64.597333 0-120.917333 35.925333-149.674666 89.002666a131.413333 131.413333 0 0 0-216.32 84.309334A145.578667 145.578667 0 0 0 404.48 834.389333c0 80.213333 65.194667 145.322667 145.664 145.322667h505.856c76.117333 0 137.728-61.44 137.728-137.386667 0-61.44-40.448-113.493333-96.256-131.157333zM52.053333 215.04h696.064a51.114667 51.114667 0 0 0 50.944-50.858667V50.944a51.114667 51.114667 0 0 0-50.944-50.858667H52.053333a51.114667 51.114667 0 0 0-50.944 50.858667v113.237333c0 28.074667 23.04 50.858667 50.944 50.858667zM131.584 56.490667a51.114667 51.114667 0 1 1 0.170667 102.229333 51.114667 51.114667 0 0 1-0.170667-102.229333zM52.053333 502.272h696.149334a51.114667 51.114667 0 0 0 50.944-50.773333V338.176a51.114667 51.114667 0 0 0-50.944-50.773333H52.053333a51.114667 51.114667 0 0 0-50.944 50.773333v113.322667c0 27.904 23.04 50.773333 50.944 50.773333z m79.701334-158.634667a51.114667 51.114667 0 1 1 0.170666 102.229334 51.114667 51.114667 0 0 1-0.170666-102.229334z" p-id="176694"></path><path d="M332.970667 834.389333c0-98.56 73.642667-180.224 168.96-192.938666 10.581333-28.16 27.904-52.906667 49.92-72.277334H52.053333a51.114667 51.114667 0 0 0-50.944 50.858667v324.693333c0 27.904 23.04 50.858667 50.944 50.858667h366.848a194.730667 194.730667 0 0 1-85.845333-161.28z" p-id="176695"></path></svg>