<?xml version="1.0" standalone="no"?><!DOCTYPE svg PUBLIC "-//W3C//DTD SVG 1.1//EN" "http://www.w3.org/Graphics/SVG/1.1/DTD/svg11.dtd"><svg t="1649730980558" class="icon" viewBox="0 0 1024 1024" version="1.1" xmlns="http://www.w3.org/2000/svg" p-id="138781" xmlns:xlink="http://www.w3.org/1999/xlink" width="300" height="300"><path d="M98.986667 552.96l54.613333 37.546667-3.413333-54.613334-51.2 17.066667z" fill="" p-id="138782"></path><path d="M887.466667 590.506667l-3.413334 64.853333 61.44 37.546667-34.133333 17.066666-64.853333-37.546666-78.506667 30.72 64.853333 40.96-37.546666 17.066666-68.266667-44.373333-88.746667 34.133333 71.68 44.373334-40.96 17.066666-75.093333-47.786666-95.573333 34.133333L580.266667 853.333333l-40.96 17.066667-457.386667-314.026667-81.92 20.48 3.413333 81.92L443.733333 1003.52l92.16-44.373333v-51.2l170.666667-75.093334v51.2l81.92-37.546666 3.413333-51.2 150.186667-68.266667-3.413333 47.786667 75.093333-34.133334 6.826667-85.333333-133.12-64.853333z m-843.093334 68.266666v-51.2l122.88 98.986667 3.413334 51.2-126.293334-98.986667zM238.933333 812.373333l-3.413333-51.2 153.6 112.64 3.413333 54.613334L238.933333 812.373333z" fill="" p-id="138783"></path><path d="M768 573.44v-23.893333l-208.213333 71.68v27.306666l208.213333-75.093333zM757.76 457.386667l-23.893333 6.826666 6.826666-160.426666-30.72 10.24-6.826666 157.013333-23.893334 6.826667 37.546667 64.853333 40.96-85.333333zM573.44 423.253333l23.893333-6.826666-3.413333 160.426666 37.546667-10.24 3.413333-157.013333 23.893333-6.826667-40.96-71.68-44.373333 92.16z" fill="" p-id="138784"></path><path d="M167.253333 583.68l276.48 197.973333 433.493334-160.426666 17.066666-512L750.933333 71.68 303.786667 167.253333v187.733334l-44.373334-23.893334L249.173333 136.533333l436.906667-88.746666-119.466667-30.72L153.6 98.986667l13.653333 484.693333zM853.333333 167.253333l-10.24 423.253334-358.4 129.706666V256L853.333333 167.253333z" fill="" p-id="138785"></path></svg>