<svg t="1595299489477" class="icon" viewBox="0 0 1024 1024" version="1.1" xmlns="http://www.w3.org/2000/svg" p-id="2859" width="200" height="200"><path d="M814.545455 523.636364a34.909091 34.909091 0 0 1 34.583272 30.161454l0.325818 4.747637v69.818181a174.545455 174.545455 0 0 1-165.236363 174.312728l-9.309091 0.232727H270.475636l80.058182 80.058182a34.909091 34.909091 0 0 1 3.351273 45.428363l-3.397818 3.909819a34.909091 34.909091 0 0 1-45.428364 3.397818l-3.909818-3.397818-139.636364-139.636364-1.024-1.024a35.095273 35.095273 0 0 1-2.280727-2.792727l3.258182 3.816727a35.048727 35.048727 0 0 1-6.795637-39.749818 32.861091 32.861091 0 0 1 6.842182-9.588364l139.636364-139.636364a34.909091 34.909091 0 0 1 52.736 45.428364l-3.397818 3.909818-80.104728 80.058182H674.909091a104.727273 104.727273 0 0 0 104.494545-97.559273l0.232728-7.168V558.545455a34.909091 34.909091 0 0 1 34.909091-34.909091z m-118.877091-412.066909l3.909818 3.397818 139.636363 139.636363c1.210182 1.163636 2.327273 2.420364 3.304728 3.770182l-3.258182-3.770182a35.048727 35.048727 0 0 1 6.795636 39.749819 32.861091 32.861091 0 0 1-3.863272 6.23709l-2.97891 3.351273-139.636363 139.636364a34.909091 34.909091 0 0 1-52.736-45.428364l3.397818-3.909818 80.011636-80.058182H325.818182a104.727273 104.727273 0 0 0-104.494546 97.559273L221.090909 418.909091v69.818182a34.909091 34.909091 0 0 1-69.492364 4.747636L151.272727 488.727273V418.909091A174.545455 174.545455 0 0 1 316.509091 244.596364L325.818182 244.363636h404.433454l-80.058181-80.058181a34.909091 34.909091 0 0 1-3.351273-45.428364l3.397818-3.909818a34.909091 34.909091 0 0 1 45.428364-3.397818z" p-id="2860"></path></svg>