<?xml version="1.0" standalone="no"?><!DOCTYPE svg PUBLIC "-//W3C//DTD SVG 1.1//EN" "http://www.w3.org/Graphics/SVG/1.1/DTD/svg11.dtd"><svg t="1578479905844" class="icon" viewBox="0 0 1024 1024" version="1.1" xmlns="http://www.w3.org/2000/svg" p-id="100479" xmlns:xlink="http://www.w3.org/1999/xlink" width="300" height="300"><defs><style type="text/css"></style></defs><path d="M781.992 450.566c-41.002-24.599-188.601-112.063-248.734-150.329-16.399-10.937-32.799-13.668-46.466-2.737-8.2 5.468-289.733 177.669-289.733 177.669s-24.599 10.932-24.599 60.134l16.4 319.799c0 21.868 19.131 40.999 43.73 40.999h549.402c21.868 0 40.999-19.131 43.734-40.999l13.664-317.068v-21.867c0 0.002 0-30.065-57.398-65.601z m-95.667 341.667H325.527c-10.937 0-19.135-8.199-19.135-19.131 0-10.935 8.199-19.134 19.135-19.134h358.066c10.931 0 19.131 8.199 19.131 19.134 0 10.932-8.2 19.131-16.399 19.131z m0-98.4H325.527c-10.937 0-19.135-8.199-19.135-19.131 0-10.935 8.199-19.135 19.135-19.135h358.066c10.931 0 19.131 8.2 19.131 19.135 0 10.932-8.2 19.131-16.399 19.131z m0-101.132H325.527c-10.937 0-19.135-8.199-19.135-19.13 0-10.937 8.199-19.135 19.135-19.135h358.066c10.931 0 19.131 8.199 19.131 19.135 0 10.931-8.2 19.13-16.399 19.13z m0 0" p-id="100480" fill="#2BBD9E"></path><path d="M904.991 390.433L533.258 136.235c-13.668-8.2-32.799-10.931-46.466 0L120.527 379.502c-19.135 13.668-24.603 38.267-10.937 57.402 13.668 19.13 38.267 24.599 57.402 10.931l344.399-226.868 347.134 237.799c8.199 5.468 16.399 8.204 21.867 8.204 13.668 0 24.599-5.468 32.799-16.404 13.668-21.862 8.2-46.465-8.2-60.133z m0 0" p-id="100481" fill="#2BBD9E"></path></svg>